<svg width="20" height="20" viewBox="0 0 20 20" fill="none" xmlns="http://www.w3.org/2000/svg">
<path d="M12.6071 11.4557C12.4666 11.591 12.2787 11.6667 12.0832 11.6667C11.8877 11.6667 11.6999 11.591 11.5594 11.4557C10.2725 10.2087 8.54781 8.81567 9.38889 6.79322C9.84364 5.69972 10.9352 5 12.0832 5C13.2312 5 14.3228 5.69972 14.7776 6.79322C15.6176 8.81308 13.8971 10.2129 12.6071 11.4557Z" stroke="#EB6A48" stroke-width="1.25"/>
<path d="M12.0835 7.91675H12.091" stroke="#EB6A48" stroke-width="1.66667" stroke-linecap="round" stroke-linejoin="round"/>
<path d="M18.3332 10.0001C18.3332 14.6024 14.6022 18.3334 9.99984 18.3334C5.39746 18.3334 1.6665 14.6024 1.6665 10.0001C1.6665 5.39771 5.39746 1.66675 9.99984 1.66675C14.6022 1.66675 18.3332 5.39771 18.3332 10.0001Z" stroke="#EB6A48" stroke-width="1.25"/>
<path d="M7.5 12.5L4.16667 15.8333M12.5 17.5L2.5 7.5" stroke="#EB6A48" stroke-width="1.25" stroke-linecap="round"/>
</svg>
