<svg width="30" height="30" viewBox="0 0 30 30" fill="none" xmlns="http://www.w3.org/2000/svg">
<path d="M10 26.25C10 24.4823 10 23.5984 10.5492 23.0491C11.0983 22.5 11.9822 22.5 13.75 22.5H16.25C18.0177 22.5 18.9016 22.5 19.4509 23.0491C20 23.5984 20 24.4823 20 26.25V27.5H10V26.25Z" stroke="#D84E2A" stroke-width="1.875" stroke-linecap="round" stroke-linejoin="round"/>
<path d="M15 16.25V22.5" stroke="#D84E2A" stroke-width="1.875" stroke-linecap="round" stroke-linejoin="round"/>
<path d="M7.5 27.5H22.5" stroke="#D84E2A" stroke-width="1.875" stroke-linecap="round" stroke-linejoin="round"/>
<path d="M16.2958 3.58314L17.6156 6.24467C17.7955 6.61515 18.2755 6.97053 18.6805 7.03858L21.0728 7.43932C22.6025 7.6964 22.9625 8.81545 21.8601 9.91938L20.0004 11.7945C19.6854 12.1121 19.5129 12.7245 19.6104 13.1631L20.1428 15.4844C20.5628 17.3218 19.5954 18.0325 17.983 17.0723L15.7408 15.7339C15.3359 15.4919 14.6684 15.4919 14.256 15.7339L12.0137 17.0723C10.4089 18.0325 9.43399 17.3141 9.85394 15.4844L10.3864 13.1631C10.4839 12.7245 10.3114 12.1121 9.99643 11.7945L8.13663 9.91938C7.04175 8.81545 7.39421 7.6964 8.92404 7.43932L11.3163 7.03858C11.7137 6.97053 12.1937 6.61515 12.3737 6.24467L13.6935 3.58314C14.4134 2.13895 15.5833 2.13895 16.2958 3.58314Z" stroke="#D84E2A" stroke-width="1.875" stroke-linecap="round" stroke-linejoin="round"/>
</svg>
