<svg width="30" height="30" viewBox="0 0 30 30" fill="none" xmlns="http://www.w3.org/2000/svg">
<path d="M17.1595 4.30522L19.3592 8.7411C19.6592 9.35858 20.4591 9.95087 21.1341 10.0643L25.1211 10.7322C27.6709 11.1607 28.2709 13.0257 26.4335 14.8656L23.3339 17.9909C22.8089 18.5201 22.5215 19.5409 22.6839 20.2719L23.5714 24.1406C24.2712 27.2029 22.6589 28.3875 19.9717 26.787L16.2346 24.5565C15.5597 24.1532 14.4474 24.1532 13.7599 24.5565L10.0228 26.787C7.34812 28.3875 5.72331 27.1902 6.42324 24.1406L7.31064 20.2719C7.47311 19.5409 7.18565 18.5201 6.6607 17.9909L3.56105 14.8656C1.73625 13.0257 2.32369 11.1607 4.8734 10.7322L8.86046 10.0643C9.52289 9.95087 10.3228 9.35858 10.6228 8.7411L12.8225 4.30522C14.0224 1.89826 15.9721 1.89826 17.1595 4.30522Z" stroke="#D84E2A" stroke-width="1.875" stroke-linecap="round" stroke-linejoin="round"/>
</svg>
